<svg width="180" height="180" viewBox="0 0 180 180" fill="none" xmlns="http://www.w3.org/2000/svg">
<rect width="180" height="180" rx="30" fill="#2563eb"/>
<path d="M45 60c0-8.284 6.716-15 15-15h60c8.284 0 15 6.716 15 15v7.5H45V60z" fill="white"/>
<path d="M135 75H45v60c0 8.284 6.716 15 15 15h60c8.284 0 15-6.716 15-15V75z" fill="white"/>
<circle cx="60" cy="147.5" r="7.5" fill="#2563eb"/>
<circle cx="142.5" cy="147.5" r="7.5" fill="#2563eb"/>
<path d="M15.375 15.375h15l19.98 93.15a15 15 0 0 0 15 11.85h73.47a15 15 0 0 0 14.625-11.775l12.375-55.725H38.25" stroke="#2563eb" stroke-width="3.75" stroke-linecap="round" stroke-linejoin="round"/>
<path d="M75 90h30M75 105h22.5" stroke="#2563eb" stroke-width="2.8" stroke-linecap="round"/>
</svg>
