<svg width="16" height="16" viewBox="0 0 16 16" fill="none" xmlns="http://www.w3.org/2000/svg">
<rect width="16" height="16" rx="2" fill="#2563eb"/>
<path d="M2 5.5c0-.276.224-.5.5-.5h11c.276 0 .5.224.5.5s-.224.5-.5.5h-11c-.276 0-.5-.224-.5-.5zM2 8c0-.276.224-.5.5-.5h11c.276 0 .5.224.5.5s-.224.5-.5.5h-11C2.224 8.5 2 8.276 2 8zM2 10.5c0-.276.224-.5.5-.5h7c.276 0 .5.224.5.5s-.224.5-.5.5h-7c-.276 0-.5-.224-.5-.5z" fill="white"/>
<circle cx="4" cy="13.5" r="0.5" fill="white"/>
<circle cx="12" cy="13.5" r="0.5" fill="white"/>
</svg>
