<svg width="512" height="512" viewBox="0 0 512 512" fill="none" xmlns="http://www.w3.org/2000/svg">
<rect width="512" height="512" rx="85" fill="#2563eb"/>
<path d="M128 171c0-23.564 19.103-42.667 42.667-42.667h170.666c23.564 0 42.667 19.103 42.667 42.667v21.333H128V171z" fill="white"/>
<path d="M384 213.333H128v170.667c0 23.564 19.103 42.667 42.667 42.667h170.666c23.564 0 42.667-19.103 42.667-42.667V213.333z" fill="white"/>
<circle cx="170.667" cy="418.667" r="21.333" fill="#2563eb"/>
<circle cx="405.333" cy="418.667" r="21.333" fill="#2563eb"/>
<path d="M43.733 43.733h42.667l56.747 264.96a42.667 42.667 0 0 0 42.667 33.707h208.64a42.667 42.667 0 0 0 41.6-33.493l35.2-158.507H109.333" stroke="#2563eb" stroke-width="10.667" stroke-linecap="round" stroke-linejoin="round"/>
<path d="M213.333 256h85.334M213.333 298.667h64" stroke="#2563eb" stroke-width="8" stroke-linecap="round"/>
</svg>
